<svg width="19" height="19" viewBox="0 0 19 19" fill="none" xmlns="http://www.w3.org/2000/svg">
<circle cx="9.5" cy="9.5" r="9.5" fill="#141414" fill-opacity="0.3"/>
<path d="M8.736 11.348C8.736 11.036 8.788 10.764 8.892 10.532C8.996 10.3 9.124 10.092 9.276 9.908C9.436 9.724 9.608 9.556 9.792 9.404C9.976 9.244 10.148 9.088 10.308 8.936C10.468 8.776 10.596 8.608 10.692 8.432C10.796 8.256 10.848 8.052 10.848 7.82C10.848 7.436 10.696 7.124 10.392 6.884C10.088 6.644 9.668 6.524 9.132 6.524C8.652 6.524 8.236 6.604 7.884 6.764C7.532 6.924 7.232 7.16 6.984 7.472L6.108 6.848C6.444 6.424 6.872 6.096 7.392 5.864C7.912 5.624 8.52 5.504 9.216 5.504C9.792 5.504 10.292 5.592 10.716 5.768C11.14 5.936 11.468 6.18 11.7 6.5C11.94 6.812 12.06 7.192 12.06 7.64C12.06 7.976 12.008 8.264 11.904 8.504C11.8 8.744 11.668 8.956 11.508 9.14C11.348 9.324 11.176 9.496 10.992 9.656C10.816 9.816 10.648 9.976 10.488 10.136C10.328 10.296 10.196 10.472 10.092 10.664C9.988 10.856 9.936 11.084 9.936 11.348H8.736ZM9.348 14.072C9.124 14.072 8.936 13.996 8.784 13.844C8.64 13.692 8.568 13.512 8.568 13.304C8.568 13.08 8.64 12.896 8.784 12.752C8.936 12.608 9.124 12.536 9.348 12.536C9.572 12.536 9.756 12.608 9.9 12.752C10.044 12.896 10.116 13.08 10.116 13.304C10.116 13.512 10.044 13.692 9.9 13.844C9.756 13.996 9.572 14.072 9.348 14.072Z" fill="black"/>
</svg>
