<svg width="109" height="25" fill="none" xmlns="http://www.w3.org/2000/svg"><path fill-rule="evenodd" clip-rule="evenodd" d="M54.982 21.985s.645-.313 1.778-.734c.583.28 1.862.86 3.1 1.218 1.676.484 2.793.41 4.357.41 1.563 0 3.798-.26 3.798-.26s-.335-1.23-.373-2.123c-.037-.894-.037-1.043-.037-1.043s-.335 1.266-.26 1.937c.074.67.074.893.074.893s-2.942.298-5.027.075c-2.085-.224-3.351-.448-4.245-.745a35.973 35.973 0 00-1.285-.4 36.144 36.144 0 017.02-1.797c5.212-.782 4.17-.521 4.17-.521s.112-.224.782-.298c.67-.075 7.521-.41 9.644-.26 2.123.148 7.969.446 8.825 1.005.856.558 1.192 1.117.93 2.494-.26 1.378-.781 2.719-1.265 2.42-.484-.297-2.123-1.563-3.687-1.787-1.563-.223-3.276-.186-3.984 0-.707.186-1.899.931-2.457.745-.559-.186-1.676-1.229-2.57-.856-.893.372-.93.484-1.34 1.005-.41.521-.968 1.117-1.415.559-.447-.56-1.266-.82-1.974-.857-.707-.037-1.34.186-1.526.372a5.431 5.431 0 00-.447.559s-1.154-.298-2.495-.149c-1.34.149-3.65.26-5.213-.037-1.564-.298-4.878-1.825-4.878-1.825zm14.075.447s1.49-.26 2.048.149c.559.41.67.745 1.676-.075 1.005-.819 1.638-1.415 2.755-.819 1.117.596 1.639.968 2.719.41 1.08-.559 3.425-1.155 5.399-.335 1.973.819 3.5 2.122 3.798 1.303.298-.82.447-1.713-1.08-2.048-1.526-.335-3.798-.707-5.883-.372-2.086.335-2.458 1.303-3.314 1.042-.857-.26-1.787-1.042-2.83-.633-1.043.41-1.936 1.676-2.793 1.266-.856-.41-1.452-.782-1.973-.521-.522.26-.522.633-.522.633z" fill="#fff"/><path d="M.872.196v5.538h.256c.02-.318.068-.638.15-.959.079-.324.18-.635.308-.933.124-.294.268-.563.432-.805.16-.239.337-.432.524-.583a2.55 2.55 0 01.533-.327c.219-.104.48-.19.785-.255a5.062 5.062 0 011.057-.105H9.08L.323 13.824l.039.118h12.665V7.58h-.255c-.02.36-.056.726-.108 1.096-.056.37-.13.73-.23 1.08-.1.35-.228.674-.385.975a3.058 3.058 0 01-.573.776 2.88 2.88 0 01-.9.583 3.603 3.603 0 01-.95.235 7.187 7.187 0 01-.9.046h-4.32L13.127.314l-.099-.118H.872zm16.102 11.547c.003.16-.003.323-.023.494-.016.17-.062.34-.13.504a1.29 1.29 0 01-.338.455c-.147.12-.31.216-.497.278a2.77 2.77 0 01-.57.137 7.358 7.358 0 01-.563.056l-.333.02v.255h13.784v-5.97h-.255l-.059.61c-.03.323-.075.644-.134.971a4.07 4.07 0 01-.3.943 2.898 2.898 0 01-.606.854 2.813 2.813 0 01-.36.3 3.236 3.236 0 01-.603.335c-.245.111-.54.203-.883.275a6.12 6.12 0 01-1.198.11h-4.497V2.397a3.018 3.018 0 01.023-.429c.017-.17.062-.347.13-.53.073-.184.184-.347.338-.494a1.38 1.38 0 01.49-.278 2.92 2.92 0 01.584-.138A7.57 7.57 0 0121.53.47l.334-.02V.197H14.52v.256l.334.02c.173.01.36.029.56.055.195.026.389.072.578.138.187.062.35.153.491.278.154.147.269.31.337.494.07.183.115.36.131.53.02.17.026.314.023.429v9.347zM35.55 0l-4.28 10.329a16.122 16.122 0 01-.7 1.45l-.223.376c-.063.105-.15.232-.259.376a3.155 3.155 0 01-.412.442 2.767 2.767 0 01-1.39.655l-.374.059v.255h7.05v-.255l-.492-.04a3.77 3.77 0 01-.618-.098 2.48 2.48 0 01-.622-.242 1.458 1.458 0 01-.488-.426 1.368 1.368 0 01-.219-.523c-.04-.2-.053-.406-.033-.619.017-.209.062-.405.134-.586l.747-1.826h5.027l.883 2.16c.053.121.095.252.134.396.04.148.06.289.063.43-.004.29-.06.523-.17.693a1.031 1.031 0 01-.42.386 1.268 1.268 0 01-.32.128 3.475 3.475 0 01-.458.085c-.184.023-.41.042-.675.062l-.294.02v.255h7.698v-.255l-.315-.02a3.093 3.093 0 01-.687-.118 3.216 3.216 0 01-.622-.242 2.114 2.114 0 01-.478-.327 2.126 2.126 0 01-.33-.449 7.582 7.582 0 01-.36-.74 60.578 60.578 0 01-.488-1.168L37.219 0H35.55zm2.357 7.953h-4.045l2.003-4.83h.039l2.003 4.83zm12.862-6.186h1.453a4.34 4.34 0 01.995.102c.203.042.405.11.608.203.206.095.396.222.576.382.164.151.311.35.445.603.131.252.25.53.347.834a7.775 7.775 0 01.367 1.823h.255V.196H43.287v5.518h.255c.02-.278.063-.576.125-.89.059-.314.14-.625.242-.933a5.12 5.12 0 01.35-.834c.131-.252.278-.452.442-.603.18-.16.37-.287.576-.382.203-.092.406-.16.609-.203a4.338 4.338 0 01.995-.102h1.453v9.976a3.04 3.04 0 01-.023.428c-.017.17-.062.347-.131.53a1.37 1.37 0 01-.337.495c-.141.12-.305.216-.491.278-.19.066-.383.108-.58.137-.199.026-.386.043-.56.056l-.333.02v.255h7.344v-.255l-.334-.02a9.756 9.756 0 01-.556-.056 3.18 3.18 0 01-.582-.137 1.456 1.456 0 01-.491-.278 1.407 1.407 0 01-.338-.494 2.102 2.102 0 01-.13-.53 3.09 3.09 0 01-.023-.43V1.768zM75.786.197h-5.891l-3.672 9.327h-.06L62.493.196h-6.127v.256l.334.02c.174.01.36.029.56.055.196.026.39.072.579.138.186.062.35.153.49.278.154.147.27.31.338.494.069.183.114.36.13.53.02.17.027.314.024.429v8.954c.003.15-.007.334-.026.55-.02.216-.066.435-.138.654-.069.22-.18.406-.327.563a1.496 1.496 0 01-.484.305 3.203 3.203 0 01-.596.176c-.206.04-.39.062-.55.069l-.334.02v.255h6.618v-.255l-.334-.02a3.825 3.825 0 01-.55-.069 3.201 3.201 0 01-.596-.176 1.494 1.494 0 01-.484-.305 1.291 1.291 0 01-.275-.425 2.286 2.286 0 01-.147-.504 4.608 4.608 0 01-.069-.838V2.1h.059l4.673 11.84h.904L70.838 2.1h.06v9.642c.002.114-.004.258-.024.428a1.98 1.98 0 01-.13.53c-.07.18-.184.347-.338.495a1.46 1.46 0 01-.49.278c-.19.066-.384.108-.58.137-.2.026-.386.043-.56.056l-.333.02v.255h7.344v-.255l-.334-.02a9.793 9.793 0 01-.557-.056 3.11 3.11 0 01-.579-.137 1.439 1.439 0 01-.494-.278 1.409 1.409 0 01-.337-.494 2.096 2.096 0 01-.131-.53 3.582 3.582 0 01-.023-.43V2.397a3.576 3.576 0 01.023-.429 2.1 2.1 0 01.13-.53c.073-.184.184-.347.338-.494.14-.125.304-.216.494-.278.187-.066.38-.112.58-.138.196-.026.382-.046.556-.056l.334-.02V.197zM82.992 0l-4.28 10.329a16.035 16.035 0 01-.7 1.45l-.223.376a4.42 4.42 0 01-.26.376 3.16 3.16 0 01-.411.442 2.765 2.765 0 01-1.39.655l-.375.059v.255h7.05v-.255l-.49-.04a3.769 3.769 0 01-.62-.098 2.479 2.479 0 01-.621-.242 1.457 1.457 0 01-.488-.426 1.368 1.368 0 01-.219-.523c-.04-.2-.053-.406-.033-.619a1.99 1.99 0 01.134-.586l.747-1.826h5.026l.884 2.16c.052.121.095.252.134.396.04.148.06.289.062.43-.003.29-.058.523-.17.693a1.031 1.031 0 01-.418.386 1.268 1.268 0 01-.321.128 3.474 3.474 0 01-.459.085 13.87 13.87 0 01-.674.062l-.294.02v.255h7.697v-.255l-.314-.02a3.093 3.093 0 01-.687-.118 3.222 3.222 0 01-.622-.242 2.116 2.116 0 01-.478-.327 2.136 2.136 0 01-.33-.449 7.585 7.585 0 01-.36-.74A62.462 62.462 0 0189 10.624L84.66 0h-1.669zm2.357 7.953h-4.046l2.003-4.83h.04l2.003 4.83zM91.573.196v.256l.374.078c.238.056.484.16.736.311.252.15.494.324.726.524.233.2.44.399.619.599l4.536 5.046-3.83 4.458c-.065.082-.16.18-.277.297a14.521 14.521 0 01-.786.724 6.18 6.18 0 01-.31.255 5.415 5.415 0 01-1.002.583c-.357.16-.71.281-1.06.36v.255h7.717v-.255l-.472-.04a6.144 6.144 0 01-.857-.124 7.423 7.423 0 01-.4-.111 1.7 1.7 0 01-.395-.206.994.994 0 01-.308-.331 1.013 1.013 0 01-.121-.504c.003-.154.046-.314.124-.484a3 3 0 01.269-.472c.101-.144.186-.258.255-.34l2.494-2.906 2.69 2.965c.14.15.272.308.396.468.124.163.229.327.308.497.078.167.117.337.121.508a.757.757 0 01-.161.48 1.125 1.125 0 01-.409.305 2.42 2.42 0 01-.621.197 5.124 5.124 0 01-.695.078l-.569.02v.255h8.247v-.255a3.553 3.553 0 01-1.512-.57 6.586 6.586 0 01-1.034-.9c-.33-.35-.681-.736-1.047-1.162l-4.183-4.673 2.651-3.063c.19-.22.39-.452.599-.7.213-.25.439-.492.681-.727.239-.236.501-.449.782-.635a5.16 5.16 0 011.244-.583 4.05 4.05 0 01.68-.163l.393-.06V.197h-7.894v.256l.491.039c.36.03.655.082.884.154.229.072.406.16.53.258a.945.945 0 01.308.357c.059.134.088.281.085.448-.003.197-.03.37-.085.527a1.738 1.738 0 01-.197.406 2.78 2.78 0 01-.229.305l-1.963 2.297-2.789-3.103a1.254 1.254 0 01-.22-.314.595.595 0 01-.055-.255.841.841 0 01.115-.442c.078-.144.222-.272.435-.383a2.27 2.27 0 01.357-.124A4.5 4.5 0 0198.74.49l.451-.04V.197h-7.618zM.282 20.414a2.094 2.094 0 01.602-.254c.114-.028.23-.041.346-.042.163 0 .305.028.426.083a.649.649 0 01.285.243.739.739 0 01.02.72.838.838 0 01-.227.264 1.09 1.09 0 01-.34.178 1.36 1.36 0 01-.42.065h-.26v.444H.98c.117 0 .234.008.35.026.118.017.229.046.334.086a.99.99 0 01.28.161c.082.067.147.15.194.249a.812.812 0 01.073.352c0 .167-.04.315-.12.444a.817.817 0 01-.35.305c-.155.073-.342.11-.565.112a1.96 1.96 0 01-.377-.04 2.348 2.348 0 01-.646-.236L0 24.031c.177.104.366.18.57.227a2.65 2.65 0 001.102.022c.16-.031.31-.08.449-.146a1.36 1.36 0 00.368-.254c.106-.104.19-.227.25-.372a1.3 1.3 0 00.092-.499 1.132 1.132 0 00-.15-.569 1.086 1.086 0 00-.392-.388 1.43 1.43 0 00-.568-.18v-.012c.177-.042.335-.115.475-.218.14-.103.253-.231.334-.384.082-.152.124-.32.126-.508a1.059 1.059 0 00-.17-.599 1.068 1.068 0 00-.467-.379c-.2-.087-.43-.13-.695-.132-.247.001-.47.034-.669.095a2.087 2.087 0 00-.527.248l.154.43zm3.645-.693v1.91c.001.182-.002.37-.011.564a5.54 5.54 0 01-.051.559c-.027.18-.066.343-.12.488a.954.954 0 01-.215.352.93.93 0 01-.477.242l.073.471c.09 0 .175-.011.262-.032a1.475 1.475 0 00.438-.183 1.13 1.13 0 00.314-.332 1.84 1.84 0 00.198-.454c.05-.169.086-.349.11-.539.025-.192.04-.386.047-.587.008-.2.011-.4.01-.596v-1.372h1.493v4.041h.592v-4.532H3.927zm6.018 3.107l.485 1.425h.625l-1.547-4.532h-.7l-1.546 4.532h.605l.471-1.425h1.607zM8.46 22.37l.444-1.31c.047-.14.088-.278.124-.417.037-.138.072-.273.105-.404h.013c.033.13.069.264.105.401.038.137.081.278.13.426l.451 1.304H8.459zm4.122 1.883h.592V20.22h1.385v-.498h-3.355v.498h1.378v4.034zm4.31-4.613a2.077 2.077 0 00-.838.17 1.927 1.927 0 00-.664.48c-.189.21-.334.46-.438.751a2.934 2.934 0 00-.158.98c.002.344.05.656.15.939.098.281.237.524.418.729.18.203.395.36.644.471a2.196 2.196 0 001.49.067 1.914 1.914 0 001.032-.776c.13-.192.23-.414.3-.666.071-.252.107-.534.108-.845a2.894 2.894 0 00-.144-.929 2.113 2.113 0 00-.411-.727 1.817 1.817 0 00-.645-.474 2.074 2.074 0 00-.844-.17zm-.02.478a1.26 1.26 0 01.93.389c.116.12.212.26.288.417.077.156.134.325.172.502.037.178.056.358.056.541 0 .259-.032.502-.096.729a1.924 1.924 0 01-.282.598 1.365 1.365 0 01-.456.407 1.31 1.31 0 01-.619.149 1.322 1.322 0 01-.507-.098 1.3 1.3 0 01-.405-.27 1.577 1.577 0 01-.296-.404 2.08 2.08 0 01-.182-.505 2.767 2.767 0 01-.003-1.142c.037-.185.096-.357.174-.516.078-.159.175-.297.291-.417a1.26 1.26 0 01.41-.279c.155-.067.33-.1.525-.101zm2.327-.397l1.506 3.066a.42.42 0 01.048.14.253.253 0 01-.028.136 2.357 2.357 0 01-.135.257 1.51 1.51 0 01-.19.25.933.933 0 01-.249.191.692.692 0 01-.313.075 1.41 1.41 0 01-.13-.004.653.653 0 01-.092-.016l-.054.478a.63.63 0 00.134.03c.054.006.119.01.195.01.2 0 .386-.047.554-.14a1.57 1.57 0 00.468-.418c.081-.106.16-.224.235-.359.076-.134.149-.277.22-.428a22.96 22.96 0 00.393-.928l.955-2.34h-.62l-.712 1.923-.148.443a20.97 20.97 0 01-.127.37h-.02a22.985 22.985 0 00-.323-.793l-.901-1.943h-.666zm7.047 3.92c-.08.038-.17.072-.274.1a2.665 2.665 0 01-.688.088c-.366-.002-.679-.076-.937-.224a1.468 1.468 0 01-.591-.63c-.137-.27-.206-.593-.207-.968a2.37 2.37 0 01.127-.794c.084-.231.204-.428.358-.587.156-.16.342-.28.559-.364a2.02 2.02 0 01.725-.124c.19.001.36.019.514.054.154.035.285.08.394.134l.147-.477a1.392 1.392 0 00-.224-.089 2.467 2.467 0 00-.358-.078 3.361 3.361 0 00-.493-.035 2.646 2.646 0 00-.963.172c-.29.113-.538.274-.748.484-.21.21-.37.46-.484.75a2.68 2.68 0 00-.172.974c.002.374.058.703.169.99a1.97 1.97 0 001.175 1.161c.27.099.566.15.888.15.185-.002.355-.012.51-.032a3.19 3.19 0 00.407-.08c.117-.033.21-.067.28-.104l-.114-.47zm1.714.612h.592V20.22h1.386v-.498H26.58v.498h1.378v4.034zm4.31-4.613a2.08 2.08 0 00-.838.17 1.931 1.931 0 00-.664.48c-.189.21-.334.46-.437.751a2.932 2.932 0 00-.158.98c0 .344.05.656.149.939.098.281.237.524.418.729.18.203.396.36.644.471a2.195 2.195 0 001.49.067 1.917 1.917 0 001.033-.776c.13-.192.23-.414.3-.666a3.17 3.17 0 00.108-.845 2.901 2.901 0 00-.145-.929 2.111 2.111 0 00-.41-.727 1.82 1.82 0 00-.645-.474 2.074 2.074 0 00-.844-.17zm-.02.478a1.26 1.26 0 01.93.389c.116.12.213.26.289.417.076.156.133.325.171.502.037.178.056.358.056.541 0 .259-.032.502-.096.729a1.926 1.926 0 01-.281.598 1.365 1.365 0 01-.457.407 1.31 1.31 0 01-.618.149 1.32 1.32 0 01-.508-.098 1.3 1.3 0 01-.404-.27 1.58 1.58 0 01-.296-.404 2.084 2.084 0 01-.183-.505 2.774 2.774 0 01-.003-1.142c.038-.185.096-.357.174-.516a1.6 1.6 0 01.292-.417c.116-.12.253-.212.41-.279.155-.067.33-.1.524-.101zm2.825 4.122c.097.013.223.025.375.037.153.01.331.015.532.017.37 0 .684-.034.942-.103.259-.07.465-.176.619-.32a1.183 1.183 0 00.39-.909 1.068 1.068 0 00-.306-.779 1.306 1.306 0 00-.629-.35v-.02c.158-.058.294-.136.408-.235.114-.099.203-.213.264-.343a1.04 1.04 0 00-.009-.886.933.933 0 00-.28-.332 1.177 1.177 0 00-.312-.187 1.805 1.805 0 00-.405-.108 3.407 3.407 0 00-.52-.035 5.59 5.59 0 00-.768.048 3.062 3.062 0 00-.301.053v4.452zm.585-4.062c.046-.011.11-.02.192-.028.083-.008.192-.012.325-.012.199-.001.373.024.52.075.148.05.263.13.345.24.082.108.123.25.124.425 0 .146-.04.278-.117.393a.78.78 0 01-.333.271 1.26 1.26 0 01-.525.102h-.531v-1.466zm0 1.903h.484c.161 0 .312.017.453.05a1.2 1.2 0 01.372.158.756.756 0 01.345.666.859.859 0 01-.096.416.74.74 0 01-.258.273 1.17 1.17 0 01-.372.148c-.14.03-.285.045-.438.044-.103 0-.197-.002-.277-.005a1.995 1.995 0 01-.213-.022v-1.728zm6.105 1.56c-.08.038-.17.072-.273.1a2.663 2.663 0 01-.688.088c-.367-.002-.68-.076-.937-.224a1.466 1.466 0 01-.592-.63c-.136-.27-.205-.593-.206-.968a2.37 2.37 0 01.127-.794 1.53 1.53 0 01.917-.95 2.02 2.02 0 01.725-.125c.19.001.36.019.514.054.154.035.285.08.393.134l.148-.477a1.38 1.38 0 00-.224-.089 2.464 2.464 0 00-.358-.078 3.36 3.36 0 00-.494-.035 2.646 2.646 0 00-.963.172 2.147 2.147 0 00-.747.484c-.21.21-.371.46-.484.75a2.68 2.68 0 00-.173.974c.003.374.059.703.17.99a1.967 1.967 0 001.175 1.161c.27.099.566.15.888.15.185-.002.354-.012.509-.032a3.11 3.11 0 00.408-.08c.116-.033.21-.067.28-.104l-.115-.47zm.854-3.92v4.532h.585v-2.078h.189c.19 0 .354.025.49.073.136.05.253.118.348.207.095.089.176.196.242.319.067.123.126.26.177.41l.128.366c.043.126.087.248.134.368.048.119.099.231.155.335h.626a6.186 6.186 0 01-.178-.409 15.81 15.81 0 01-.157-.426 33.136 33.136 0 00-.163-.45 3.228 3.228 0 00-.19-.426 1.553 1.553 0 00-.25-.35 1.216 1.216 0 00-.347-.254 1.56 1.56 0 00-.484-.14l1.715-2.077h-.7l-1.553 2.01h-.182v-2.01h-.585zm3.645 0v4.532h.625l1.419-2.26c.157-.249.307-.502.453-.759.146-.257.276-.51.388-.76l.02.007c-.016.19-.027.378-.035.568-.008.19-.012.39-.015.597-.003.209-.004.434-.004.677v1.93h.552v-4.532h-.585l-1.466 2.333c-.165.268-.318.527-.458.776-.14.248-.265.49-.376.724l-.02-.007a35.285 35.285 0 00.05-1.237c.002-.217.003-.443.003-.68v-1.91h-.551zm6.765 1.923h-1.755v-1.432h1.863v-.491H50.68v4.532h2.555v-.49h-1.963v-1.635h1.755v-.484zm38.022-1.923v4.532h.592v-2.125h2.192v2.125h.592v-4.532h-.592v1.896h-2.192v-1.896h-.592zm6.22-.08a2.06 2.06 0 00-.838.169 1.93 1.93 0 00-.664.48c-.189.21-.334.46-.438.751a2.924 2.924 0 00-.158.98c.002.344.05.656.15.939.098.281.237.524.418.729.18.203.395.36.644.471a2.195 2.195 0 001.49.067 1.914 1.914 0 001.033-.776 2.28 2.28 0 00.3-.666c.07-.252.107-.534.108-.845a2.897 2.897 0 00-.145-.929 2.111 2.111 0 00-.411-.727 1.819 1.819 0 00-.644-.474 2.075 2.075 0 00-.845-.17zm-.02.477a1.261 1.261 0 01.93.389c.116.12.212.26.289.417.076.156.133.325.171.502.037.178.056.358.056.541 0 .259-.032.502-.096.729a1.92 1.92 0 01-.281.598 1.364 1.364 0 01-.457.407 1.31 1.31 0 01-.618.149 1.32 1.32 0 01-.508-.098 1.3 1.3 0 01-.405-.27 1.582 1.582 0 01-.296-.404 2.084 2.084 0 01-.182-.505 2.767 2.767 0 01-.003-1.142 2.15 2.15 0 01.174-.516c.078-.159.175-.297.291-.417a1.259 1.259 0 01.935-.38zm2.461-.397l1.601 2.085a1.427 1.427 0 00-.457.128 1.143 1.143 0 00-.331.247 1.642 1.642 0 00-.242.352 3.531 3.531 0 00-.187.443c-.048.14-.096.283-.141.427a13.44 13.44 0 01-.144.428 5.1 5.1 0 01-.173.422h.599c.049-.102.094-.215.137-.338.041-.123.082-.247.12-.372.038-.126.075-.244.113-.352a3.59 3.59 0 01.17-.42c.062-.125.135-.231.22-.32a.836.836 0 01.316-.204c.124-.047.276-.072.457-.072h.209v2.078h.564v-2.078h.202c.181 0 .333.025.458.072a.84.84 0 01.315.204c.086.089.158.195.22.32.06.125.118.264.17.42.036.108.072.226.11.352.037.125.077.248.119.372.043.123.09.236.141.338h.599a4.838 4.838 0 01-.166-.422 15.116 15.116 0 01-.139-.43 16.918 16.918 0 00-.139-.432 3.424 3.424 0 00-.188-.445 1.633 1.633 0 00-.246-.354 1.128 1.128 0 00-.336-.246 1.37 1.37 0 00-.461-.118l1.607-2.085h-.678l-1.406 2.01h-.182v-2.01h-.564v2.01h-.182l-1.406-2.01h-.679zm5.749 0v4.532h.626l1.419-2.26c.157-.249.307-.502.452-.759.146-.257.277-.51.388-.76l.021.007c-.016.19-.027.378-.035.568a26.79 26.79 0 00-.019 1.274v1.93h.551v-4.532h-.585l-1.466 2.333a24.7 24.7 0 00-.457.776c-.14.248-.265.49-.377.724l-.02-.007a20 20 0 00.032-.607c.007-.204.013-.414.018-.63.003-.216.004-.443.004-.68v-1.91h-.552z" fill="#fff"/></svg>