<svg width="19" height="19" fill="none" xmlns="http://www.w3.org/2000/svg"><circle cx="9.5" cy="9.5" r="9.5" fill="#141414" fill-opacity=".3"/><path d="M8.736 11.348c0-.312.052-.584.156-.816.104-.232.232-.44.384-.624a4.38 4.38 0 01.516-.504c.184-.16.356-.316.516-.468.16-.16.288-.328.384-.504a1.18 1.18 0 00.156-.612c0-.384-.152-.696-.456-.936-.304-.24-.724-.36-1.26-.36-.48 0-.896.08-1.248.24-.352.16-.652.396-.9.708l-.876-.624a3.35 3.35 0 011.284-.984c.52-.24 1.128-.36 1.824-.36.576 0 1.076.088 1.5.264.424.168.752.412.984.732.24.312.36.692.36 1.14 0 .336-.052.624-.156.864a2.44 2.44 0 01-.396.636c-.16.184-.332.356-.516.516-.176.16-.344.32-.504.48a2.28 2.28 0 00-.396.528c-.104.192-.156.42-.156.684h-1.2zm.612 2.724a.759.759 0 01-.78-.768c0-.224.072-.408.216-.552a.789.789 0 01.564-.216c.224 0 .408.072.552.216a.748.748 0 01.216.552.759.759 0 01-.216.54.727.727 0 01-.552.228z" fill="#000"/></svg>